<?xml version="1.0" standalone="no"?>
<svg xmlns="http://www.w3.org/2000/svg" width="944" height="707"><g transform="translate(60,20)"><g class="x axis" transform="translate(0,600)" fill="none" font-size="10" font-family="sans-serif" text-anchor="middle"><path class="domain" stroke="#000" d="M0.5,6V0.5H884.5V6"/><g class="tick" opacity="1" transform="translate(14.258064516129062,0)"><line stroke="#000" y2="6"/><text fill="#000" y="9" dy="-0.5em" style="text-anchor: end;" dx="-.8em" transform="rotate(-90)">L1S105</text></g><g class="tick" opacity="1" transform="translate(40.18181818181821,0)"><line stroke="#000" y2="6"/><text fill="#000" y="9" dy="-0.5em" style="text-anchor: end;" dx="-.8em" transform="rotate(-90)">L1S140</text></g><g class="tick" opacity="1" transform="translate(66.10557184750736,0)"><line stroke="#000" y2="6"/><text fill="#000" y="9" dy="-0.5em" style="text-anchor: end;" dx="-.8em" transform="rotate(-90)">L1S208</text></g><g class="tick" opacity="1" transform="translate(92.02932551319651,0)"><line stroke="#000" y2="6"/><text fill="#000" y="9" dy="-0.5em" style="text-anchor: end;" dx="-.8em" transform="rotate(-90)">L1S257</text></g><g class="tick" opacity="1" transform="translate(117.95307917888566,0)"><line stroke="#000" y2="6"/><text fill="#000" y="9" dy="-0.5em" style="text-anchor: end;" dx="-.8em" transform="rotate(-90)">L1S281</text></g><g class="tick" opacity="1" transform="translate(143.8768328445748,0)"><line stroke="#000" y2="6"/><text fill="#000" y="9" dy="-0.5em" style="text-anchor: end;" dx="-.8em" transform="rotate(-90)">L1S57</text></g><g class="tick" opacity="1" transform="translate(169.80058651026394,0)"><line stroke="#000" y2="6"/><text fill="#000" y="9" dy="-0.5em" style="text-anchor: end;" dx="-.8em" transform="rotate(-90)">L1S76</text></g><g class="tick" opacity="1" transform="translate(195.72434017595307,0)"><line stroke="#000" y2="6"/><text fill="#000" y="9" dy="-0.5em" style="text-anchor: end;" dx="-.8em" transform="rotate(-90)">L1S8</text></g><g class="tick" opacity="1" transform="translate(221.64809384164224,0)"><line stroke="#000" y2="6"/><text fill="#000" y="9" dy="-0.5em" style="text-anchor: end;" dx="-.8em" transform="rotate(-90)">L2S155</text></g><g class="tick" opacity="1" transform="translate(247.5718475073314,0)"><line stroke="#000" y2="6"/><text fill="#000" y="9" dy="-0.5em" style="text-anchor: end;" dx="-.8em" transform="rotate(-90)">L2S175</text></g><g class="tick" opacity="1" transform="translate(273.4956011730206,0)"><line stroke="#000" y2="6"/><text fill="#000" y="9" dy="-0.5em" style="text-anchor: end;" dx="-.8em" transform="rotate(-90)">L2S204</text></g><g class="tick" opacity="1" transform="translate(299.4193548387097,0)"><line stroke="#000" y2="6"/><text fill="#000" y="9" dy="-0.5em" style="text-anchor: end;" dx="-.8em" transform="rotate(-90)">L2S222</text></g><g class="tick" opacity="1" transform="translate(325.34310850439886,0)"><line stroke="#000" y2="6"/><text fill="#000" y="9" dy="-0.5em" style="text-anchor: end;" dx="-.8em" transform="rotate(-90)">L2S240</text></g><g class="tick" opacity="1" transform="translate(351.266862170088,0)"><line stroke="#000" y2="6"/><text fill="#000" y="9" dy="-0.5em" style="text-anchor: end;" dx="-.8em" transform="rotate(-90)">L2S309</text></g><g class="tick" opacity="1" transform="translate(377.1906158357771,0)"><line stroke="#000" y2="6"/><text fill="#000" y="9" dy="-0.5em" style="text-anchor: end;" dx="-.8em" transform="rotate(-90)">L2S357</text></g><g class="tick" opacity="1" transform="translate(403.1143695014663,0)"><line stroke="#000" y2="6"/><text fill="#000" y="9" dy="-0.5em" style="text-anchor: end;" dx="-.8em" transform="rotate(-90)">L2S382</text></g><g class="tick" opacity="1" transform="translate(429.03812316715545,0)"><line stroke="#000" y2="6"/><text fill="#000" y="9" dy="-0.5em" style="text-anchor: end;" dx="-.8em" transform="rotate(-90)">L3S242</text></g><g class="tick" opacity="1" transform="translate(454.9618768328446,0)"><line stroke="#000" y2="6"/><text fill="#000" y="9" dy="-0.5em" style="text-anchor: end;" dx="-.8em" transform="rotate(-90)">L3S294</text></g><g class="tick" opacity="1" transform="translate(480.88563049853377,0)"><line stroke="#000" y2="6"/><text fill="#000" y="9" dy="-0.5em" style="text-anchor: end;" dx="-.8em" transform="rotate(-90)">L3S313</text></g><g class="tick" opacity="1" transform="translate(506.8093841642229,0)"><line stroke="#000" y2="6"/><text fill="#000" y="9" dy="-0.5em" style="text-anchor: end;" dx="-.8em" transform="rotate(-90)">L3S341</text></g><g class="tick" opacity="1" transform="translate(532.733137829912,0)"><line stroke="#000" y2="6"/><text fill="#000" y="9" dy="-0.5em" style="text-anchor: end;" dx="-.8em" transform="rotate(-90)">L3S360</text></g><g class="tick" opacity="1" transform="translate(558.6568914956011,0)"><line stroke="#000" y2="6"/><text fill="#000" y="9" dy="-0.5em" style="text-anchor: end;" dx="-.8em" transform="rotate(-90)">L3S378</text></g><g class="tick" opacity="1" transform="translate(584.5806451612902,0)"><line stroke="#000" y2="6"/><text fill="#000" y="9" dy="-0.5em" style="text-anchor: end;" dx="-.8em" transform="rotate(-90)">L4S112</text></g><g class="tick" opacity="1" transform="translate(610.5043988269795,0)"><line stroke="#000" y2="6"/><text fill="#000" y="9" dy="-0.5em" style="text-anchor: end;" dx="-.8em" transform="rotate(-90)">L4S137</text></g><g class="tick" opacity="1" transform="translate(636.4281524926686,0)"><line stroke="#000" y2="6"/><text fill="#000" y="9" dy="-0.5em" style="text-anchor: end;" dx="-.8em" transform="rotate(-90)">L4S63</text></g><g class="tick" opacity="1" transform="translate(662.3519061583577,0)"><line stroke="#000" y2="6"/><text fill="#000" y="9" dy="-0.5em" style="text-anchor: end;" dx="-.8em" transform="rotate(-90)">L5S104</text></g><g class="tick" opacity="1" transform="translate(688.2756598240469,0)"><line stroke="#000" y2="6"/><text fill="#000" y="9" dy="-0.5em" style="text-anchor: end;" dx="-.8em" transform="rotate(-90)">L5S155</text></g><g class="tick" opacity="1" transform="translate(714.199413489736,0)"><line stroke="#000" y2="6"/><text fill="#000" y="9" dy="-0.5em" style="text-anchor: end;" dx="-.8em" transform="rotate(-90)">L5S174</text></g><g class="tick" opacity="1" transform="translate(740.1231671554251,0)"><line stroke="#000" y2="6"/><text fill="#000" y="9" dy="-0.5em" style="text-anchor: end;" dx="-.8em" transform="rotate(-90)">L5S203</text></g><g class="tick" opacity="1" transform="translate(766.0469208211143,0)"><line stroke="#000" y2="6"/><text fill="#000" y="9" dy="-0.5em" style="text-anchor: end;" dx="-.8em" transform="rotate(-90)">L5S222</text></g><g class="tick" opacity="1" transform="translate(791.9706744868034,0)"><line stroke="#000" y2="6"/><text fill="#000" y="9" dy="-0.5em" style="text-anchor: end;" dx="-.8em" transform="rotate(-90)">L5S240</text></g><g class="tick" opacity="1" transform="translate(817.8944281524927,0)"><line stroke="#000" y2="6"/><text fill="#000" y="9" dy="-0.5em" style="text-anchor: end;" dx="-.8em" transform="rotate(-90)">L6S20</text></g><g class="tick" opacity="1" transform="translate(843.8181818181818,0)"><line stroke="#000" y2="6"/><text fill="#000" y="9" dy="-0.5em" style="text-anchor: end;" dx="-.8em" transform="rotate(-90)">L6S68</text></g><g class="tick" opacity="1" transform="translate(869.7419354838709,0)"><line stroke="#000" y2="6"/><text fill="#000" y="9" dy="-0.5em" style="text-anchor: end;" dx="-.8em" transform="rotate(-90)">L6S93</text></g></g><g class="y axis" fill="none" font-size="10" font-family="sans-serif" text-anchor="end"><path class="domain" stroke="#000" d="M-6,600.5H0.5V0.5H-6"/><g class="tick" opacity="1" transform="translate(0,600.5)"><line stroke="#000" x2="-6"/><text fill="#000" x="-9" dy="0.32em">0%</text></g><g class="tick" opacity="1" transform="translate(0,540.5)"><line stroke="#000" x2="-6"/><text fill="#000" x="-9" dy="0.32em">10%</text></g><g class="tick" opacity="1" transform="translate(0,480.5)"><line stroke="#000" x2="-6"/><text fill="#000" x="-9" dy="0.32em">20%</text></g><g class="tick" opacity="1" transform="translate(0,420.5)"><line stroke="#000" x2="-6"/><text fill="#000" x="-9" dy="0.32em">30%</text></g><g class="tick" opacity="1" transform="translate(0,360.5)"><line stroke="#000" x2="-6"/><text fill="#000" x="-9" dy="0.32em">40%</text></g><g class="tick" opacity="1" transform="translate(0,300.5)"><line stroke="#000" x2="-6"/><text fill="#000" x="-9" dy="0.32em">50%</text></g><g class="tick" opacity="1" transform="translate(0,240.5)"><line stroke="#000" x2="-6"/><text fill="#000" x="-9" dy="0.32em">60%</text></g><g class="tick" opacity="1" transform="translate(0,180.5)"><line stroke="#000" x2="-6"/><text fill="#000" x="-9" dy="0.32em">70%</text></g><g class="tick" opacity="1" transform="translate(0,120.5)"><line stroke="#000" x2="-6"/><text fill="#000" x="-9" dy="0.32em">80%</text></g><g class="tick" opacity="1" transform="translate(0,60.5)"><line stroke="#000" x2="-6"/><text fill="#000" x="-9" dy="0.32em">90%</text></g><g class="tick" opacity="1" transform="translate(0,0.5)"><line stroke="#000" x2="-6"/><text fill="#000" x="-9" dy="0.32em">100%</text></g></g><text id="y-label" text-anchor="middle" style="font: 12px sans-serif;" transform="translate(-30,300)rotate(-90)">Relative Frequency</text><text id="x-label" text-anchor="middle" style="font: 12px sans-serif;" transform="translate(442,667)">Sample</text><g class="layer" style="fill: rgb(127, 201, 127);"><rect x="2.5923753665689446" y="0" height="600" width="23.331378299120235"/><rect x="28.516129032258092" y="0" height="600" width="23.331378299120235"/><rect x="54.43988269794724" y="0" height="600" width="23.331378299120235"/><rect x="80.36363636363639" y="0" height="600" width="23.331378299120235"/><rect x="106.28739002932554" y="0" height="600" width="23.331378299120235"/><rect x="132.2111436950147" y="0" height="600" width="23.331378299120235"/><rect x="158.13489736070383" y="0" height="600" width="23.331378299120235"/><rect x="184.05865102639297" y="0" height="600" width="23.331378299120235"/><rect x="209.98240469208213" y="0" height="600" width="23.331378299120235"/><rect x="235.9061583577713" y="0" height="600" width="23.331378299120235"/><rect x="261.82991202346045" y="0" height="600" width="23.331378299120235"/><rect x="287.75366568914956" y="0" height="600" width="23.331378299120235"/><rect x="313.6774193548387" y="0" height="600" width="23.331378299120235"/><rect x="339.6011730205279" y="0" height="600" width="23.331378299120235"/><rect x="365.524926686217" y="0" height="600" width="23.331378299120235"/><rect x="391.44868035190615" y="0" height="600" width="23.331378299120235"/><rect x="417.3724340175953" y="0" height="600" width="23.331378299120235"/><rect x="443.2961876832845" y="0" height="600" width="23.331378299120235"/><rect x="469.21994134897363" y="0" height="600" width="23.331378299120235"/><rect x="495.14369501466274" y="0" height="600" width="23.331378299120235"/><rect x="521.067448680352" y="0" height="600" width="23.331378299120235"/><rect x="546.9912023460411" y="0" height="600" width="23.331378299120235"/><rect x="572.9149560117302" y="0" height="600" width="23.331378299120235"/><rect x="598.8387096774194" y="0" height="600" width="23.331378299120235"/><rect x="624.7624633431085" y="0" height="600" width="23.331378299120235"/><rect x="650.6862170087976" y="0" height="600" width="23.331378299120235"/><rect x="676.6099706744868" y="0" height="600" width="23.331378299120235"/><rect x="702.5337243401759" y="0" height="600" width="23.331378299120235"/><rect x="728.457478005865" y="0" height="600" width="23.331378299120235"/><rect x="754.3812316715542" y="0" height="600" width="23.331378299120235"/><rect x="780.3049853372434" y="0" height="600" width="23.331378299120235"/><rect x="806.2287390029326" y="0" height="600" width="23.331378299120235"/><rect x="832.1524926686217" y="0" height="600" width="23.331378299120235"/><rect x="858.0762463343108" y="0" height="600" width="23.331378299120235"/></g></g></svg>